#!OML:ASF F:\VICON\USERDATA\INSTALL\Justin_Nancy\Justin_Nancy.ASF
:FULLY-SPECIFIED
:DEGREES
354
root 0.369795 16.5287 15.0084 -19.3609 0.0451406 -1.03767
lowerback 7.99443 0.829684 -0.162977
upperback 4.54143 1.11775 3.23423
thorax 0.147389 0.522415 3.34499
lowerneck -10.2213 -3.50227 -11.7375
upperneck 25.2129 -4.83055 8.89374
head 10.1968 -2.37853 4.60066
rclavicle -1.41137e-014 -1.82882e-014
rhumerus -78.7411 0.630098 -48.0179
rradius 40.6392
rwrist -13.7937
rhand -29.615 12.3331
rfingers 7.12502
rthumb -2.94563 -17.6263
lclavicle -1.41137e-014 -1.82882e-014
lhumerus -77.4499 1.35564 44.7911
lradius 46.1004
lwrist 5.51891
lhand -21.6012 21.2389
lfingers 7.12502
lthumb 4.79382 51.1647
rfemur -11.8627 0.142347 22.5841
rtibia 44.8814
rfoot -5.09548 1.78399
rtoes 8.61571
lfemur -14.3487 -8.14061 -15.239
ltibia 42.7311
lfoot -2.95776 -3.23354
ltoes -16.4357
355
root 0.353512 16.2699 15.2578 -20.2403 -0.185099 -0.596419
lowerback 8.61205 0.932116 -0.743654
upperback 4.50571 1.22002 3.09637
thorax -0.243808 0.569314 3.51353
lowerneck -9.66922 -3.32178 -12.0361
upperneck 24.422 -4.60754 9.18624
head 9.79058 -2.27737 4.76555
rclavicle -1.10325e-014 2.22639e-014
rhumerus -77.0775 -0.437351 -47.6604
rradius 38.8606
rwrist -12.8559
rhand -28.8858 12.487
rfingers 7.12502
rthumb -2.24144 -17.4809
lclavicle -1.10325e-014 2.22639e-014
lhumerus -77.0619 2.64246 45.5154
lradius 43.8185
lwrist 5.90141
lhand -22.3946 21.4542
lfingers 7.12502
lthumb 4.02774 51.3958
rfemur -12.1522 0.481018 22.6663
rtibia 48.7974
rfoot -8.93279 0.0144164
rtoes 7.6641
lfemur -14.7233 -7.79461 -15.8362
ltibia 46.9409
lfoot -6.46002 -2.30703
ltoes -11.846
356
root 0.329055 16.0573 15.4865 -21.0605 -0.333799 -0.0871797
lowerback 9.31234 1.01615 -1.49389
upperback 4.58038 1.27175 2.93155
thorax -0.564913 0.588421 3.75413
lowerneck -9.46185 -3.19954 -11.9437
upperneck 23.7243 -4.41133 9.07828
head 9.47466 -2.18674 4.71328
rclavicle 1.0635e-014 1.59028e-014
rhumerus -74.6012 -1.64344 -48.0994
rradius 36.4322
rwrist -11.6473
rhand -27.4403 13.59
rfingers 7.12502
rthumb -0.845374 -16.388
lclavicle 1.0635e-014 1.59028e-014
lhumerus -76.12 4.18402 46.8992
lradius 41.1778
lwrist 6.58766
lhand -23.0557 20.7077
lfingers 7.12502
lthumb 3.38928 50.6605
rfemur -12.4213 0.795966 22.7653
rtibia 52.193
rfoot -11.7437 -2.14023
rtoes 6.57098
lfemur -15.1562 -7.4616 -16.455
ltibia 50.7695
lfoot -9.09128 -1.51979
ltoes -13.4778
357
root 0.287417 15.8913 15.7155 -21.6147 0.0535173 0.568035
lowerback 9.56558 0.938996 -2.70683
upperback 4.65747 1.06043 2.65075
thorax -0.619409 0.467238 4.16897
lowerneck -9.53351 -3.06355 -11.5895
upperneck 23.3661 -4.19398 8.8034
head 9.32253 -2.07716 4.56747
rclavicle 8.94531e-016 1.11319e-014
rhumerus -71.3058 -3.28294 -48.7474
rradius 33.1394
rwrist -10.1166
rhand -25.6014 14.7236
rfingers 7.12502
rthumb 0.930733 -15.2542
lclavicle 8.94531e-016 1.11319e-014
lhumerus -74.3084 6.17517 48.3214
lradius 37.7054
lwrist 7.65918
lhand -23.3843 19.4299
lfingers 7.12502
lthumb 3.07193 49.3875
rfemur -12.5295 0.720846 22.5634
rtibia 55.2032
rfoot -14.1463 -3.958
rtoes 9.43094
lfemur -15.5966 -7.23969 -17.2287
ltibia 54.0337
lfoot -11.2343 -1.0503
ltoes -14.0035
358
root 0.236212 15.7362 15.9359 -21.5424 0.623806 0.903245
lowerback 9.01455 0.701761 -3.78651
upperback 4.63977 0.666792 2.44177
thorax -0.30295 0.248686 4.60672
lowerneck -9.786 -2.92837 -11.3251
upperneck 23.3872 -3.99649 8.67059
head 9.34573 -1.97063 4.49621
rclavicle 5.06901e-015 1.74931e-014
rhumerus -67.3622 -5.73404 -48.8552
rradius 29.0693
rwrist -7.73363
rhand -23.0398 15.8239
rfingers 7.12502
rthumb 3.40468 -14.1286
lclavicle 5.06901e-015 1.74931e-014
lhumerus -71.5887 8.63301 49.655
lradius 33.3465
lwrist 8.59827
lhand -22.8826 18.1989
lfingers 7.12502
lthumb 3.55651 48.149
rfemur -13.0682 0.370281 22.5607
rtibia 57.861
rfoot -16.4203 -5.60552
rtoes 9.38367
lfemur -16.5125 -6.95765 -17.4833
ltibia 56.7708
lfoot -13.248 -1.26224
ltoes -12.477
359
root 0.197613 15.5918 16.144 -21.071 0.154712 0.607748
lowerback 7.82646 0.601878 -3.85193
upperback 4.53471 0.565626 2.53618
thorax 0.251772 0.184097 4.75545
lowerneck -9.5783 -2.77955 -11.2917
upperneck 23.4252 -3.80891 8.62736
head 9.29587 -1.89008 4.49789
rclavicle 2.88238e-015 -7.95139e-016
rhumerus -63.0795 -9.48103 -47.6598
rradius 24.4133
rwrist -3.42553
rhand -20.2864 16.4556
rfingers 7.12502
rthumb 6.0633 -13.4376
lclavicle 2.88238e-015 -7.95139e-016
lhumerus -68.5123 11.2576 51.133
lradius 28.8812
lwrist 8.7952
lhand -21.8011 19.1665
lfingers 7.12502
lthumb 4.60086 49.0965
rfemur -14.0369 0.800896 23.4799
rtibia 60.1578
rfoot -18.2736 -7.27166
rtoes 5.481
lfemur -17.4728 -5.86778 -16.5835
ltibia 59.0303
lfoot -15.3576 -1.58147
ltoes -12.8885
360
root 0.190034 15.4732 16.3555 -21.4989 -0.586067 0.542544
lowerback 7.34694 0.603846 -3.59293
upperback 4.4631 0.597656 2.50717
thorax 0.439434 0.202026 4.5768
lowerneck -8.61822 -2.58447 -11.4311
upperneck 23.5599 -3.6593 8.77404
head 9.14685 -1.84085 4.59736
rclavicle 1.78906e-015 8.74653e-015
rhumerus -59.88 -15.0635 -44.64
rradius 20.3277
rwrist 3.90603
rhand -18.6921 15.7043
rfingers 7.12502
rthumb 7.60237 -14.1391
lclavicle 1.78906e-015 8.74653e-015
lhumerus -65.7073 15.0984 50.6361
lradius 23.97
lwrist 6.31075
lhand -21.8383 22.3898
lfingers 7.12502
lthumb 4.56495 52.3206
rfemur -13.7809 1.4533 24.0066
rtibia 62.0784
rfoot -19.0175 -8.33554
rtoes 6.56585
lfemur -16.7913 -4.70868 -16.0579
ltibia 60.6194
lfoot -17.5438 -1.44275
ltoes -14.8374
361
root 0.169231 15.3787 16.5518 -22.1989 -0.72195 1.0568
lowerback 7.28366 0.58858 -4.12216
upperback 4.28531 0.545613 2.23718
thorax 0.295486 0.176226 4.59861
lowerneck -7.7025 -2.43936 -11.4309
upperneck 24.0574 -3.62319 8.92475
head 9.14211 -1.83598 4.6718
rclavicle -2.38542e-015 1.19271e-015
rhumerus -58.6466 -21.5912 -41.1767
rradius 18.099
rwrist 11.6244
rhand -18.9257 14.7702
rfingers 7.12502
rthumb 7.37683 -15.0812
lclavicle -2.38542e-015 1.19271e-015
lhumerus -65.17 22.4256 43.7688
lradius 18.5896
lwrist -4.79651
lhand -18.8158 20.9349
lfingers 7.12502
lthumb 7.48292 50.7825
rfemur -13.1229 1.66983 23.707
rtibia 63.7381
rfoot -20.8581 -7.97785
rtoes 5.28405
lfemur -15.5136 -3.87762 -16.3014
ltibia 61.5289
lfoot -19.5913 -1.54898
ltoes -14.7716
362
root 0.137394 15.3194 16.732 -22.5768 -0.976815 1.25741
lowerback 6.95496 0.606542 -4.42482
upperback 4.11268 0.562235 2.06962
thorax 0.296464 0.18477 4.59495
lowerneck -7.21667 -2.39579 -11.17
upperneck 24.5477 -3.68584 8.90594
head 9.22121 -1.86105 4.62906
rclavicle 5.1684e-015 1.39149e-014
rhumerus -58.3111 -27.7749 -39.0606
rradius 17.4969
rwrist 16.0918
rhand -20.3799 14.6202
rfingers 7.12502
rthumb 5.97304 -15.2756
lclavicle 5.1684e-015 1.39149e-014
lhumerus -66.1659 28.6402 38.8985
lradius 17.132
lwrist -12.3992
lhand -19.4892 17.2475
lfingers 7.12502
lthumb 6.83291 47.1172
rfemur -12.6522 1.82161 23.8505
rtibia 64.9988
rfoot -21.2564 -9.3622
rtoes 5.18147
lfemur -14.3757 -2.91258 -16.0645
ltibia 61.9284
lfoot -21.5021 -1.57783
ltoes -14.416
363
root 0.108084 15.2721 16.8901 -22.6206 -1.09938 1.23265
lowerback 6.71774 0.581357 -4.48036
upperback 3.74992 0.531688 1.9674
thorax 0.0553748 0.183796 4.52126
lowerneck -7.18704 -2.4849 -10.9216
upperneck 25.1862 -3.87734 8.82151
head 9.45563 -1.9448 4.55461
rclavicle 3.97569e-016 1.59028e-015
rhumerus -56.973 -30.8028 -41.679
rradius 19.0743
rwrist 13.0639
rhand -22.1062 13.4927
rfingers 7.12502
rthumb 4.30617 -16.4435
lclavicle 3.97569e-016 1.59028e-015
lhumerus -65.5901 31.3427 40.8039
lradius 18.9425
lwrist -10.8669
lhand -20.2599 20.0269
lfingers 7.12502
lthumb 6.08886 49.9194
rfemur -12.3783 1.65358 24.0632
rtibia 65.9242
rfoot -22.0007 -9.87771
rtoes 6.50523
lfemur -13.681 -2.18326 -15.7246
ltibia 62.1715
lfoot -22.9748 -1.18487
ltoes -14.0402
